<svg width="18" height="12" viewBox="0 0 18 12" fill="none" xmlns="http://www.w3.org/2000/svg">
<path fill-rule="evenodd" clip-rule="evenodd" d="M16.6666 0.666992H15.6666C15.1143 0.666992 14.6666 1.11471 14.6666 1.66699V10.3337C14.6666 10.8859 15.1143 11.3337 15.6666 11.3337H16.6666C17.2189 11.3337 17.6666 10.8859 17.6666 10.3337V1.66699C17.6666 1.11471 17.2189 0.666992 16.6666 0.666992ZM11 3.00033H12C12.5522 3.00033 13 3.44804 13 4.00033V10.3337C13 10.8859 12.5522 11.3337 12 11.3337H11C10.4477 11.3337 9.99996 10.8859 9.99996 10.3337V4.00033C9.99996 3.44804 10.4477 3.00033 11 3.00033ZM7.33329 5.33366H6.33329C5.78101 5.33366 5.33329 5.78137 5.33329 6.33366V10.3337C5.33329 10.8859 5.78101 11.3337 6.33329 11.3337H7.33329C7.88558 11.3337 8.33329 10.8859 8.33329 10.3337V6.33366C8.33329 5.78137 7.88558 5.33366 7.33329 5.33366ZM2.66663 7.33366H1.66663C1.11434 7.33366 0.666626 7.78137 0.666626 8.33366V10.3337C0.666626 10.8859 1.11434 11.3337 1.66663 11.3337H2.66663C3.21891 11.3337 3.66663 10.8859 3.66663 10.3337V8.33366C3.66663 7.78137 3.21891 7.33366 2.66663 7.33366Z" fill="black"/>
</svg>
