<svg width="20" height="20" viewBox="0 0 20 20" fill="none" xmlns="http://www.w3.org/2000/svg">
<g clip-path="url(#clip0_308_2056)">
<path d="M0 9.99023C0 8.17689 0.44668 6.50357 1.34 4.97023C2.23334 3.43689 3.44668 2.22357 4.98 1.33023C6.51334 0.436894 8.18668 -0.00976562 10 -0.00976562C11.8133 -0.00976562 13.4867 0.436894 15.02 1.33023C16.5533 2.22357 17.7667 3.43689 18.66 4.97023C19.5533 6.50357 20 8.17689 20 9.99023C20 11.8036 19.5533 13.4769 18.66 15.0102C17.7667 16.5436 16.5533 17.7569 15.02 18.6502C13.4867 19.5436 11.8133 19.9902 10 19.9902C8.18668 19.9902 6.51334 19.5436 4.98 18.6502C3.44668 17.7569 2.23334 16.5436 1.34 15.0102C0.44668 13.4769 0 11.8036 0 9.99023ZM1.66 9.99023C1.66 12.0702 2.36 13.9036 3.76 15.4902C4.4 14.2369 5.41334 13.0436 6.8 11.9102C8.18668 10.7769 9.54 10.0636 10.86 9.77023C10.66 9.30357 10.4667 8.88357 10.28 8.51023C7.98668 9.24357 5.50668 9.61023 2.84 9.61023C2.32 9.61023 1.93334 9.60357 1.68 9.59023C1.68 9.64357 1.67668 9.71023 1.67 9.79023C1.66334 9.87023 1.66 9.93689 1.66 9.99023ZM1.92 7.93023C2.21334 7.95689 2.64668 7.97023 3.22 7.97023C5.44668 7.97023 7.56 7.67023 9.56 7.07023C8.54668 5.27023 7.43334 3.77023 6.22 2.57023C5.16668 3.10357 4.26334 3.84357 3.51 4.79023C2.75668 5.73689 2.22668 6.78357 1.92 7.93023ZM4.9 16.5702C6.40668 17.7436 8.10668 18.3302 10 18.3302C10.9867 18.3302 11.9667 18.1436 12.94 17.7702C12.6733 15.4902 12.1533 13.2836 11.38 11.1502C10.1533 11.4169 8.91668 12.0902 7.67 13.1702C6.42334 14.2502 5.5 15.3836 4.9 16.5702ZM7.96 1.93023C9.13334 3.14357 10.22 4.65689 11.22 6.47023C13.0333 5.71023 14.4 4.74357 15.32 3.57023C13.7733 2.29023 12 1.65023 10 1.65023C9.32 1.65023 8.64 1.74357 7.96 1.93023ZM11.94 7.89023C12.14 8.31689 12.3667 8.85689 12.62 9.51023C13.6067 9.41689 14.68 9.37023 15.84 9.37023C16.6667 9.37023 17.4867 9.39023 18.3 9.43023C18.1933 7.61689 17.54 6.00357 16.34 4.59023C15.4733 5.88357 14.0067 6.98357 11.94 7.89023ZM13.12 10.9102C13.8 12.8836 14.26 14.9102 14.5 16.9902C15.5533 16.3102 16.4133 15.4369 17.08 14.3702C17.7467 13.3036 18.1467 12.1502 18.28 10.9102C17.3067 10.8436 16.42 10.8102 15.62 10.8102C14.8867 10.8102 14.0533 10.8436 13.12 10.9102Z" fill="#4A60A1"/>
</g>
<defs>
<clipPath id="clip0_308_2056">
<rect width="20" height="20" fill="white" transform="translate(0 -0.00976562)"/>
</clipPath>
</defs>
</svg>
