<svg width="20" height="20" viewBox="0 0 20 20" fill="none" xmlns="http://www.w3.org/2000/svg">
<path d="M8.07031 8.91164C8.07031 8.91164 9.96264 8.77297 9.96264 6.58268C9.96264 4.39222 8.41448 3.32324 6.4534 3.32324H0.000244141V15.5638H6.4534C6.4534 15.5638 10.3928 15.6866 10.3928 11.9509C10.3928 11.951 10.5646 8.91164 8.07031 8.91164ZM5.9889 5.49886H6.4534C6.4534 5.49886 7.33057 5.49886 7.33057 6.77244C7.33057 8.04586 6.8147 8.23049 6.22956 8.23049H2.84359V5.49886H5.9889ZM6.27104 13.3883H2.84359V10.1171H6.4534C6.4534 10.1171 7.76078 10.1002 7.76078 11.7981C7.76078 13.2299 6.78429 13.3774 6.27104 13.3883ZM15.6467 6.4376C10.8776 6.4376 10.8818 11.1408 10.8818 11.1408C10.8818 11.1408 10.5546 15.8198 15.6467 15.8198C15.6467 15.8198 19.8901 16.0591 19.8901 12.5649H17.7078C17.7078 12.5649 17.7805 13.8808 15.7195 13.8808C15.7195 13.8808 13.5368 14.0251 13.5368 11.7512H19.9628C19.9628 11.7511 20.666 6.4376 15.6467 6.4376ZM13.5129 10.1171C13.5129 10.1171 13.7793 8.23045 15.6952 8.23045C17.6106 8.23045 17.5866 10.1171 17.5866 10.1171H13.5129ZM18.095 5.5517H12.9786V4.04437H18.095V5.5517Z" fill="#4A60A1"/>
</svg>
