<svg width="20" height="20" viewBox="0 0 20 20" fill="none" xmlns="http://www.w3.org/2000/svg">
<g clip-path="url(#clip0_308_2060)">
<path d="M6.66721 9.99023C6.66721 8.14936 8.15913 6.65663 10 6.65663C11.8409 6.65663 13.3336 8.14936 13.3336 9.99023C13.3336 11.8311 11.8409 13.3238 10 13.3238C8.15913 13.3238 6.66721 11.8311 6.66721 9.99023ZM4.86511 9.99023C4.86511 12.8263 7.16397 15.1251 10 15.1251C12.836 15.1251 15.1349 12.8263 15.1349 9.99023C15.1349 7.15421 12.836 4.85534 10 4.85534C7.16397 4.85534 4.86511 7.15421 4.86511 9.99023ZM14.1381 4.65178C14.1381 5.31414 14.6753 5.85211 15.3385 5.85211C16.0008 5.85211 16.5388 5.31414 16.5388 4.65178C16.5388 3.98943 16.0016 3.45227 15.3385 3.45227C14.6753 3.45227 14.1381 3.98943 14.1381 4.65178ZM5.95961 18.13C4.98465 18.0855 4.45477 17.9232 4.10259 17.7859C3.6357 17.6041 3.30291 17.3876 2.95234 17.0379C2.60259 16.6881 2.3853 16.3553 2.20436 15.8885C2.06704 15.5363 1.90469 15.0064 1.86026 14.0314C1.81179 12.9773 1.8021 12.6607 1.8021 9.99023C1.8021 7.3198 1.8126 7.00397 1.86026 5.94904C1.90469 4.97408 2.06785 4.445 2.20436 4.09201C2.38611 3.62513 2.60259 3.29233 2.95234 2.94177C3.3021 2.59201 3.6349 2.37473 4.10259 2.19379C4.45477 2.05647 4.98465 1.89411 5.95961 1.84969C7.01373 1.80122 7.33037 1.79153 10 1.79153C12.6704 1.79153 12.9863 1.80203 14.0412 1.84969C15.0162 1.89411 15.5452 2.05728 15.8982 2.19379C16.3651 2.37473 16.6979 2.59201 17.0485 2.94177C17.3982 3.29153 17.6147 3.62513 17.7964 4.09201C17.9338 4.44419 18.0961 4.97408 18.1406 5.94904C18.189 7.00397 18.1987 7.3198 18.1987 9.99023C18.1987 12.6599 18.189 12.9765 18.1406 14.0314C18.0961 15.0064 17.933 15.5363 17.7964 15.8885C17.6147 16.3553 17.3982 16.6881 17.0485 17.0379C16.6987 17.3876 16.3651 17.6041 15.8982 17.7859C15.546 17.9232 15.0162 18.0855 14.0412 18.13C12.9871 18.1784 12.6704 18.1881 10 18.1881C7.33037 18.1881 7.01373 18.1784 5.95961 18.13ZM5.87722 0.050816C4.8126 0.0992812 4.08562 0.268102 3.44992 0.515275C2.79241 0.770525 2.23506 1.11301 1.67851 1.66875C1.12278 2.22448 0.780291 2.78183 0.52504 3.44015C0.277868 4.07586 0.109047 4.80283 0.0605816 5.86746C0.0113086 6.93369 0 7.27456 0 9.99023C0 12.7059 0.0113086 13.0468 0.0605816 14.113C0.109047 15.1776 0.277868 15.9046 0.52504 16.5403C0.780291 17.1978 1.12197 17.756 1.67851 18.3117C2.23425 18.8675 2.7916 19.2091 3.44992 19.4652C4.08643 19.7124 4.8126 19.8812 5.87722 19.9297C6.94427 19.9781 7.28433 19.9902 10 19.9902C12.7165 19.9902 13.0565 19.9789 14.1228 19.9297C15.1874 19.8812 15.9144 19.7124 16.5501 19.4652C17.2076 19.2091 17.7649 18.8675 18.3215 18.3117C18.8772 17.756 19.2189 17.1978 19.475 16.5403C19.7221 15.9046 19.8918 15.1776 19.9394 14.113C19.9879 13.046 19.9992 12.7059 19.9992 9.99023C19.9992 7.27456 19.9879 6.93369 19.9394 5.86746C19.891 4.80283 19.7221 4.07586 19.475 3.44015C19.2189 2.78264 18.8772 2.22529 18.3215 1.66875C17.7658 1.11301 17.2076 0.770525 16.5509 0.515275C15.9144 0.268102 15.1874 0.0984735 14.1236 0.050816C13.0574 0.00235069 12.7165 -0.00976562 10.0008 -0.00976562C7.28433 -0.00976562 6.94427 0.00154294 5.87722 0.050816Z" fill="#4A60A1"/>
</g>
<defs>
<clipPath id="clip0_308_2060">
<rect width="20" height="20" fill="white" transform="translate(0 -0.00976562)"/>
</clipPath>
</defs>
</svg>
